<svg class="border shadow-md" viewBox="0 0 889.68 500.445" style="width: 889.68px; height: 500.445px;" xmlns="http://www.w3.org/2000/svg" preserveAspectRatio="none"><rect class="bg" id="bg" x="0" y="0" width="889.68" height="500.445" fill="#ffffff"/><g transform="rotate(178 444.84 250.2225)"><path d="M -222.42 420.44 S -121.21 398.44&#10;            0.00 420.44 98.42 393.44&#10;            222.42 420.44 323.63 408.44&#10;            444.84 420.44 546.05 387.44&#10;            667.26 420.44 760.68 415.44&#10;            889.68 420.44 987.10 402.44&#10;            1112.10 420.44 h 110 V 1100.445 H -222.42 Z" fill="#faa62a"/><path d="M -222.42 105.00 S -121.21 42.00&#10;            0.00 105.00 101.21 30.00&#10;            222.42 105.00 323.63 36.00&#10;            444.84 105.00 546.05 24.00&#10;            667.26 105.00 768.47 45.00&#10;            889.68 105.00 959.10 62.50&#10;            1112.10 105.00 h 110 V -600 H -222.42 Z" fill="#ffffff"/></g></svg>