<svg class="border shadow-md" viewBox="0 0 889.68 500.445" style="width: 889.68px; height: 500.445px;" xmlns="http://www.w3.org/2000/svg" preserveAspectRatio="none"><rect class="bg" id="bg" x="0" y="0" width="889.68" height="500.445" fill="#f7ad0b"/><g transform="rotate(1 444.84 250.2225)"><path d="M -222.42 420.44 S -191.00 365.44&#10;            0.00 420.44 101.21 392.44&#10;            222.42 420.44 323.63 405.44&#10;            444.84 420.44 467.26 394.44&#10;            667.26 420.44 768.47 413.44&#10;            889.68 420.44 955.10 363.44&#10;            1112.10 420.44 h 110 V 1100.445 H -222.42 Z" fill="#FCAC00"/><path d="M -222.42 105.00 S -121.21 29.00&#10;            0.00 105.00 101.21 62.50&#10;            222.42 105.00 323.63 59.00&#10;            444.84 105.00 546.05 62.50&#10;            667.26 105.00 678.68 62.50&#10;            889.68 105.00 990.89 62.50&#10;            1112.10 105.00 h 110 V -600 H -222.42 Z" fill="#F8F5F9"/></g></svg>